<mxfile host="app.diagrams.net" modified="2022-09-15T17:33:49.038Z" agent="5.0 (Macintosh; Intel Mac OS X 10_15_7) AppleWebKit/537.36 (KHTML, like Gecko) Chrome/102.0.0.0 Safari/537.36" etag="vuv2cPdnkqyZxgyJoeYh" version="20.3.1" type="github">
  <diagram id="g6YOwIe5WSn9qGe6CN7a" name="第 1 页">
    <mxGraphModel dx="1977" dy="1285" grid="1" gridSize="10" guides="1" tooltips="1" connect="1" arrows="1" fold="1" page="1" pageScale="1" pageWidth="1654" pageHeight="2336" math="0" shadow="0">
      <root>
        <mxCell id="0" />
        <mxCell id="1" parent="0" />
        <mxCell id="kZJQklHUBVb1IO4YHlfG-34" value="" style="rounded=0;whiteSpace=wrap;html=1;strokeColor=#DAE8FC;fillColor=#DAE8FC;" vertex="1" parent="1">
          <mxGeometry x="80" y="80.36000000000001" width="320" height="600" as="geometry" />
        </mxCell>
        <mxCell id="kZJQklHUBVb1IO4YHlfG-35" value="" style="shape=card;whiteSpace=wrap;html=1;rounded=0;sketch=0;fontSize=24;fontColor=#A6ABBF;strokeColor=none;strokeWidth=2;fillColor=#CCE5FF;gradientColor=none;rotation=-180;size=340;" vertex="1" parent="1">
          <mxGeometry x="80" y="80.45000000000002" width="320" height="420.9" as="geometry" />
        </mxCell>
        <mxCell id="kZJQklHUBVb1IO4YHlfG-40" value="&lt;span style=&quot;font-size: 24px;&quot;&gt;登录&lt;/span&gt;" style="rounded=1;whiteSpace=wrap;html=1;sketch=0;fontSize=16;fillColor=#FFFFFF;strokeWidth=2;strokeColor=#6c8ebf;gradientColor=none;fontColor=#6C8EBF;" vertex="1" parent="1">
          <mxGeometry x="132.5" y="580.27" width="215" height="50" as="geometry" />
        </mxCell>
        <mxCell id="kZJQklHUBVb1IO4YHlfG-46" value="" style="group" vertex="1" connectable="0" parent="1">
          <mxGeometry x="250" y="239.27" width="70" height="70.00000000000003" as="geometry" />
        </mxCell>
        <mxCell id="kZJQklHUBVb1IO4YHlfG-43" value="" style="rounded=1;whiteSpace=wrap;html=1;sketch=0;fontSize=24;fontColor=#A6ABBF;strokeColor=default;strokeWidth=2;fillColor=#DAE8FC;gradientColor=none;" vertex="1" parent="kZJQklHUBVb1IO4YHlfG-46">
          <mxGeometry width="70" height="70" as="geometry" />
        </mxCell>
        <mxCell id="kZJQklHUBVb1IO4YHlfG-44" value="" style="shape=image;html=1;verticalAlign=top;verticalLabelPosition=bottom;labelBackgroundColor=#ffffff;imageAspect=0;aspect=fixed;image=https://cdn2.iconfinder.com/data/icons/circle-icons-1/64/fashion-128.png;rounded=0;sketch=0;fontSize=24;fontColor=#A6ABBF;strokeColor=default;strokeWidth=2;fillColor=#DAE8FC;gradientColor=none;" vertex="1" parent="kZJQklHUBVb1IO4YHlfG-46">
          <mxGeometry x="12.899999999999977" y="12.900427251732111" width="44.19" height="44.19" as="geometry" />
        </mxCell>
        <mxCell id="kZJQklHUBVb1IO4YHlfG-49" value="" style="group" vertex="1" connectable="0" parent="1">
          <mxGeometry x="160" y="239.27" width="70" height="70" as="geometry" />
        </mxCell>
        <mxCell id="kZJQklHUBVb1IO4YHlfG-41" value="" style="rounded=1;whiteSpace=wrap;html=1;sketch=0;fontSize=24;fontColor=#A6ABBF;strokeColor=default;strokeWidth=2;fillColor=#DAE8FC;gradientColor=none;" vertex="1" parent="kZJQklHUBVb1IO4YHlfG-49">
          <mxGeometry width="70" height="70" as="geometry" />
        </mxCell>
        <mxCell id="kZJQklHUBVb1IO4YHlfG-42" value="" style="shape=image;html=1;verticalAlign=top;verticalLabelPosition=bottom;labelBackgroundColor=#ffffff;imageAspect=0;aspect=fixed;image=https://cdn0.iconfinder.com/data/icons/maternity-and-pregnancy-2/512/189_Tie_Business_dress_fashion_interview-128.png;rounded=0;sketch=0;fontSize=24;fontColor=#A6ABBF;strokeColor=default;strokeWidth=2;fillColor=#DAE8FC;gradientColor=none;" vertex="1" parent="kZJQklHUBVb1IO4YHlfG-49">
          <mxGeometry x="10" y="10" width="50" height="50" as="geometry" />
        </mxCell>
        <mxCell id="kZJQklHUBVb1IO4YHlfG-51" value="&lt;span style=&quot;font-size: 14px;&quot;&gt;&amp;nbsp; &amp;nbsp; 账号&lt;/span&gt;" style="rounded=1;whiteSpace=wrap;html=1;sketch=0;fontSize=14;fillColor=#FFFFFF;strokeWidth=1;strokeColor=#6c8ebf;gradientColor=none;fontColor=#999999;align=left;" vertex="1" parent="1">
          <mxGeometry x="132.5" y="335.27" width="215" height="40" as="geometry" />
        </mxCell>
        <mxCell id="kZJQklHUBVb1IO4YHlfG-52" value="&lt;span style=&quot;font-size: 14px;&quot;&gt;&amp;nbsp; &amp;nbsp; 密码&lt;/span&gt;" style="rounded=1;whiteSpace=wrap;html=1;sketch=0;fontSize=14;fillColor=#FFFFFF;strokeWidth=1;strokeColor=#6c8ebf;gradientColor=none;fontColor=#999999;align=left;" vertex="1" parent="1">
          <mxGeometry x="132.5" y="390.27" width="215" height="40" as="geometry" />
        </mxCell>
        <mxCell id="kZJQklHUBVb1IO4YHlfG-53" value="&lt;span style=&quot;font-size: 14px;&quot;&gt;&amp;nbsp; &amp;nbsp; 昵称&lt;/span&gt;" style="rounded=1;whiteSpace=wrap;html=1;sketch=0;fontSize=14;fillColor=#FFFFFF;strokeWidth=1;strokeColor=#6c8ebf;gradientColor=none;fontColor=#999999;align=left;" vertex="1" parent="1">
          <mxGeometry x="132.5" y="445.27" width="215" height="40" as="geometry" />
        </mxCell>
        <mxCell id="kZJQklHUBVb1IO4YHlfG-54" value="&lt;span style=&quot;font-size: 14px;&quot;&gt;&amp;nbsp; &amp;nbsp; 年龄&lt;/span&gt;" style="rounded=1;whiteSpace=wrap;html=1;sketch=0;fontSize=14;fillColor=#FFFFFF;strokeWidth=1;strokeColor=#6c8ebf;gradientColor=none;fontColor=#999999;align=left;" vertex="1" parent="1">
          <mxGeometry x="132.5" y="500.27" width="215" height="40" as="geometry" />
        </mxCell>
        <mxCell id="kZJQklHUBVb1IO4YHlfG-55" value="欢迎，请登录。" style="text;html=1;align=left;verticalAlign=middle;resizable=0;points=[];autosize=1;strokeColor=none;fillColor=none;fontSize=24;fontColor=#6C8EBF;" vertex="1" parent="1">
          <mxGeometry x="132.5" y="140.27" width="190" height="40" as="geometry" />
        </mxCell>
        <mxCell id="kZJQklHUBVb1IO4YHlfG-56" value="Find" style="text;html=1;align=center;verticalAlign=middle;resizable=0;points=[];autosize=1;strokeColor=none;fillColor=none;fontSize=17;fontColor=#6C8EBF;" vertex="1" parent="1">
          <mxGeometry x="81" y="89.27000000000001" width="60" height="30" as="geometry" />
        </mxCell>
        <mxCell id="kZJQklHUBVb1IO4YHlfG-57" value="" style="rounded=0;whiteSpace=wrap;html=1;strokeColor=#DAE8FC;fillColor=#DAE8FC;" vertex="1" parent="1">
          <mxGeometry x="80" y="760.4499999999999" width="320" height="600" as="geometry" />
        </mxCell>
        <mxCell id="kZJQklHUBVb1IO4YHlfG-58" value="" style="shape=card;whiteSpace=wrap;html=1;rounded=0;sketch=0;fontSize=24;fontColor=#A6ABBF;strokeColor=none;strokeWidth=2;fillColor=#CCE5FF;gradientColor=none;rotation=-180;size=340;" vertex="1" parent="1">
          <mxGeometry x="80" y="760.54" width="320" height="420.9" as="geometry" />
        </mxCell>
        <mxCell id="kZJQklHUBVb1IO4YHlfG-59" value="" style="rounded=0;whiteSpace=wrap;html=1;fontSize=16;strokeColor=#DAE8FC;" vertex="1" parent="1">
          <mxGeometry x="80" y="1300.45" width="320" height="60" as="geometry" />
        </mxCell>
        <mxCell id="kZJQklHUBVb1IO4YHlfG-60" value="" style="html=1;verticalLabelPosition=bottom;align=center;labelBackgroundColor=#ffffff;verticalAlign=top;strokeWidth=2;shadow=0;dashed=0;shape=mxgraph.ios7.icons.messages;fontSize=16;fillColor=#FBFBFB;strokeColor=#6c8ebf;" vertex="1" parent="1">
          <mxGeometry x="225" y="1317.26" width="30" height="26.38" as="geometry" />
        </mxCell>
        <mxCell id="kZJQklHUBVb1IO4YHlfG-61" value="" style="html=1;verticalLabelPosition=bottom;align=center;labelBackgroundColor=#ffffff;verticalAlign=top;strokeWidth=2;strokeColor=#6c8ebf;shadow=0;dashed=0;shape=mxgraph.ios7.icons.looking_glass;sketch=0;fontSize=16;fillColor=#FFFFFF;" vertex="1" parent="1">
          <mxGeometry x="120" y="1317.26" width="27" height="26.38" as="geometry" />
        </mxCell>
        <mxCell id="kZJQklHUBVb1IO4YHlfG-62" value="" style="html=1;verticalLabelPosition=bottom;align=center;labelBackgroundColor=#ffffff;verticalAlign=top;strokeWidth=2;strokeColor=#6c8ebf;shadow=0;dashed=0;shape=mxgraph.ios7.icons.settings;sketch=0;fontSize=16;fillColor=#DAE8FC;" vertex="1" parent="1">
          <mxGeometry x="331" y="1314.64" width="30" height="30" as="geometry" />
        </mxCell>
        <mxCell id="kZJQklHUBVb1IO4YHlfG-74" value="" style="group" vertex="1" connectable="0" parent="1">
          <mxGeometry x="110" y="790.4499999999999" width="228" height="54" as="geometry" />
        </mxCell>
        <mxCell id="kZJQklHUBVb1IO4YHlfG-66" value="" style="group" vertex="1" connectable="0" parent="kZJQklHUBVb1IO4YHlfG-74">
          <mxGeometry y="2" width="50" height="50" as="geometry" />
        </mxCell>
        <mxCell id="kZJQklHUBVb1IO4YHlfG-67" value="" style="rounded=1;whiteSpace=wrap;html=1;sketch=0;fontSize=24;fontColor=#A6ABBF;strokeColor=default;strokeWidth=2;fillColor=#DAE8FC;gradientColor=none;" vertex="1" parent="kZJQklHUBVb1IO4YHlfG-66">
          <mxGeometry width="50" height="50" as="geometry" />
        </mxCell>
        <mxCell id="kZJQklHUBVb1IO4YHlfG-68" value="" style="shape=image;html=1;verticalAlign=top;verticalLabelPosition=bottom;labelBackgroundColor=#ffffff;imageAspect=0;aspect=fixed;image=https://cdn0.iconfinder.com/data/icons/maternity-and-pregnancy-2/512/189_Tie_Business_dress_fashion_interview-128.png;rounded=0;sketch=0;fontSize=24;fontColor=#A6ABBF;strokeColor=default;strokeWidth=2;fillColor=#DAE8FC;gradientColor=none;" vertex="1" parent="kZJQklHUBVb1IO4YHlfG-66">
          <mxGeometry x="7.142857142857143" y="7.142857142857143" width="35.714285714285715" height="35.714285714285715" as="geometry" />
        </mxCell>
        <mxCell id="kZJQklHUBVb1IO4YHlfG-69" value="帅到被人砍" style="text;html=1;align=left;verticalAlign=middle;resizable=0;points=[];autosize=1;strokeColor=none;fillColor=none;fontSize=17;fontColor=#1A1A1A;" vertex="1" parent="kZJQklHUBVb1IO4YHlfG-74">
          <mxGeometry x="58" width="110" height="30" as="geometry" />
        </mxCell>
        <mxCell id="kZJQklHUBVb1IO4YHlfG-70" value="账号：shuaidaobeirenkan" style="text;html=1;align=left;verticalAlign=middle;resizable=0;points=[];autosize=1;strokeColor=none;fillColor=none;fontSize=13;fontColor=#1A1A1A;" vertex="1" parent="kZJQklHUBVb1IO4YHlfG-74">
          <mxGeometry x="58" y="24" width="170" height="30" as="geometry" />
        </mxCell>
        <mxCell id="kZJQklHUBVb1IO4YHlfG-76" value="&lt;span style=&quot;font-size: 14px;&quot;&gt;&amp;nbsp; &amp;nbsp; 个人资料&lt;/span&gt;" style="rounded=0;whiteSpace=wrap;html=1;sketch=0;fontSize=14;fillColor=#EDF2FC;strokeWidth=1;strokeColor=none;gradientColor=none;fontColor=#4D4D4D;align=left;" vertex="1" parent="1">
          <mxGeometry x="80" y="870.4499999999999" width="320" height="40" as="geometry" />
        </mxCell>
        <mxCell id="kZJQklHUBVb1IO4YHlfG-77" value="&lt;span style=&quot;font-size: 14px;&quot;&gt;&amp;nbsp; &amp;nbsp; 匹配设置&lt;/span&gt;" style="rounded=0;whiteSpace=wrap;html=1;sketch=0;fontSize=14;fillColor=#EDF2FC;strokeWidth=1;strokeColor=none;gradientColor=none;fontColor=#4D4D4D;align=left;" vertex="1" parent="1">
          <mxGeometry x="80" y="920.4499999999999" width="320" height="40" as="geometry" />
        </mxCell>
        <mxCell id="kZJQklHUBVb1IO4YHlfG-78" value="&lt;span style=&quot;font-size: 14px;&quot;&gt;&amp;nbsp; &amp;nbsp; 关于&lt;/span&gt;" style="rounded=0;whiteSpace=wrap;html=1;sketch=0;fontSize=14;fillColor=#EDF2FC;strokeWidth=1;strokeColor=none;gradientColor=none;fontColor=#4D4D4D;align=left;" vertex="1" parent="1">
          <mxGeometry x="80" y="970.4499999999999" width="320" height="40" as="geometry" />
        </mxCell>
        <mxCell id="kZJQklHUBVb1IO4YHlfG-79" value="" style="rounded=0;whiteSpace=wrap;html=1;strokeColor=#DAE8FC;fillColor=#DAE8FC;" vertex="1" parent="1">
          <mxGeometry x="480" y="760.2699999999999" width="320" height="600" as="geometry" />
        </mxCell>
        <mxCell id="kZJQklHUBVb1IO4YHlfG-80" value="" style="shape=card;whiteSpace=wrap;html=1;rounded=0;sketch=0;fontSize=24;fontColor=#A6ABBF;strokeColor=none;strokeWidth=2;fillColor=#CCE5FF;gradientColor=none;rotation=-180;size=340;" vertex="1" parent="1">
          <mxGeometry x="480" y="760.36" width="320" height="420.9" as="geometry" />
        </mxCell>
        <mxCell id="kZJQklHUBVb1IO4YHlfG-88" value="&lt;span style=&quot;font-size: 14px;&quot;&gt;&amp;nbsp; &amp;nbsp; 帅到被人砍&lt;/span&gt;" style="rounded=1;whiteSpace=wrap;html=1;sketch=0;fontSize=14;fillColor=#FFFFFF;strokeWidth=1;strokeColor=#6c8ebf;gradientColor=none;fontColor=#4D4D4D;align=left;" vertex="1" parent="1">
          <mxGeometry x="532.5" y="956.18" width="215" height="40" as="geometry" />
        </mxCell>
        <mxCell id="kZJQklHUBVb1IO4YHlfG-94" value="" style="rounded=0;whiteSpace=wrap;html=1;sketch=0;fontSize=24;fontColor=#A6ABBF;strokeColor=none;strokeWidth=0;fillColor=#E8F1FC;gradientColor=none;" vertex="1" parent="1">
          <mxGeometry x="480" y="760.36" width="320" height="49.91" as="geometry" />
        </mxCell>
        <mxCell id="kZJQklHUBVb1IO4YHlfG-95" value="&lt;font color=&quot;#6c8ebf&quot;&gt;保存&lt;/font&gt;" style="text;html=1;align=right;verticalAlign=middle;resizable=0;points=[];autosize=1;strokeColor=none;fillColor=none;fontSize=16;fontColor=#A6ABBF;" vertex="1" parent="1">
          <mxGeometry x="730" y="770.3199999999998" width="60" height="30" as="geometry" />
        </mxCell>
        <mxCell id="kZJQklHUBVb1IO4YHlfG-96" value="" style="verticalLabelPosition=bottom;verticalAlign=top;html=1;shape=mxgraph.basic.frame_corner;dx=6.24;rounded=0;sketch=0;fontSize=24;fontColor=#6C8EBF;strokeColor=#6C8EBF;strokeWidth=0;fillColor=#7EA6E0;gradientColor=none;rotation=-135;direction=south;" vertex="1" parent="1">
          <mxGeometry x="492" y="775.3199999999998" width="20" height="20" as="geometry" />
        </mxCell>
        <mxCell id="kZJQklHUBVb1IO4YHlfG-102" value="昵称" style="text;html=1;align=left;verticalAlign=middle;resizable=0;points=[];autosize=1;strokeColor=none;fillColor=none;fontSize=12;fontColor=#999999;" vertex="1" parent="1">
          <mxGeometry x="532.5" y="926.18" width="50" height="30" as="geometry" />
        </mxCell>
        <mxCell id="kZJQklHUBVb1IO4YHlfG-103" value="&lt;span style=&quot;font-size: 14px;&quot;&gt;&amp;nbsp; &amp;nbsp; 31&lt;/span&gt;" style="rounded=1;whiteSpace=wrap;html=1;sketch=0;fontSize=14;fillColor=#FFFFFF;strokeWidth=1;strokeColor=#6c8ebf;gradientColor=none;fontColor=#4D4D4D;align=left;" vertex="1" parent="1">
          <mxGeometry x="532.5" y="1112.18" width="215" height="40" as="geometry" />
        </mxCell>
        <mxCell id="kZJQklHUBVb1IO4YHlfG-104" value="年龄" style="text;html=1;align=left;verticalAlign=middle;resizable=0;points=[];autosize=1;strokeColor=none;fillColor=none;fontSize=12;fontColor=#999999;" vertex="1" parent="1">
          <mxGeometry x="532.5" y="1082.18" width="50" height="30" as="geometry" />
        </mxCell>
        <mxCell id="kZJQklHUBVb1IO4YHlfG-105" value="&lt;span style=&quot;font-size: 14px;&quot;&gt;&amp;nbsp; &amp;nbsp; 广东,广州&lt;/span&gt;" style="rounded=1;whiteSpace=wrap;html=1;sketch=0;fontSize=14;fillColor=#FFFFFF;strokeWidth=1;strokeColor=#6c8ebf;gradientColor=none;fontColor=#4D4D4D;align=left;" vertex="1" parent="1">
          <mxGeometry x="532.5" y="1191.18" width="215" height="40" as="geometry" />
        </mxCell>
        <mxCell id="kZJQklHUBVb1IO4YHlfG-106" value="地区" style="text;html=1;align=left;verticalAlign=middle;resizable=0;points=[];autosize=1;strokeColor=none;fillColor=none;fontSize=12;fontColor=#999999;" vertex="1" parent="1">
          <mxGeometry x="532.5" y="1161.18" width="50" height="30" as="geometry" />
        </mxCell>
        <mxCell id="kZJQklHUBVb1IO4YHlfG-117" value="" style="group" vertex="1" connectable="0" parent="1">
          <mxGeometry x="605" y="850.18" width="91.91" height="70" as="geometry" />
        </mxCell>
        <mxCell id="kZJQklHUBVb1IO4YHlfG-118" value="" style="rounded=1;whiteSpace=wrap;html=1;sketch=0;fontSize=24;fontColor=#A6ABBF;strokeColor=default;strokeWidth=2;fillColor=#DAE8FC;gradientColor=none;" vertex="1" parent="kZJQklHUBVb1IO4YHlfG-117">
          <mxGeometry width="70" height="70" as="geometry" />
        </mxCell>
        <mxCell id="kZJQklHUBVb1IO4YHlfG-119" value="" style="shape=image;html=1;verticalAlign=top;verticalLabelPosition=bottom;labelBackgroundColor=#ffffff;imageAspect=0;aspect=fixed;image=https://cdn0.iconfinder.com/data/icons/maternity-and-pregnancy-2/512/189_Tie_Business_dress_fashion_interview-128.png;rounded=0;sketch=0;fontSize=24;fontColor=#A6ABBF;strokeColor=default;strokeWidth=2;fillColor=#DAE8FC;gradientColor=none;" vertex="1" parent="kZJQklHUBVb1IO4YHlfG-117">
          <mxGeometry x="10" y="10" width="50" height="50" as="geometry" />
        </mxCell>
        <mxCell id="kZJQklHUBVb1IO4YHlfG-100" value="" style="shape=image;html=1;verticalAlign=top;verticalLabelPosition=bottom;labelBackgroundColor=#ffffff;imageAspect=0;image=https://cdn1.iconfinder.com/data/icons/100-basic-for-user-interface/32/27-pen-128.png;rounded=0;strokeColor=#6C8EBF;strokeWidth=1;fontSize=18;fontColor=#1A1A1A;fillColor=#EDF2FC;rotation=0;imageBorder=default;" vertex="1" parent="kZJQklHUBVb1IO4YHlfG-117">
          <mxGeometry x="70" width="15" height="15" as="geometry" />
        </mxCell>
        <mxCell id="kZJQklHUBVb1IO4YHlfG-122" value="性别" style="text;html=1;align=left;verticalAlign=middle;resizable=0;points=[];autosize=1;strokeColor=none;fillColor=none;fontSize=12;fontColor=#999999;" vertex="1" parent="1">
          <mxGeometry x="532.5" y="1003.18" width="50" height="30" as="geometry" />
        </mxCell>
        <mxCell id="kZJQklHUBVb1IO4YHlfG-108" value="" style="group;strokeWidth=2;" vertex="1" connectable="0" parent="1">
          <mxGeometry x="533" y="1034.18" width="40" height="40" as="geometry" />
        </mxCell>
        <mxCell id="kZJQklHUBVb1IO4YHlfG-109" value="" style="rounded=1;whiteSpace=wrap;html=1;sketch=0;fontSize=24;fontColor=#A6ABBF;strokeColor=#6C8EBF;strokeWidth=3;fillColor=#DAE8FC;gradientColor=none;" vertex="1" parent="kZJQklHUBVb1IO4YHlfG-108">
          <mxGeometry width="40" height="40" as="geometry" />
        </mxCell>
        <mxCell id="kZJQklHUBVb1IO4YHlfG-110" value="" style="shape=image;html=1;verticalAlign=top;verticalLabelPosition=bottom;labelBackgroundColor=#ffffff;imageAspect=0;aspect=fixed;image=https://cdn0.iconfinder.com/data/icons/maternity-and-pregnancy-2/512/189_Tie_Business_dress_fashion_interview-128.png;rounded=0;sketch=0;fontSize=24;fontColor=#A6ABBF;strokeColor=default;strokeWidth=2;fillColor=#DAE8FC;gradientColor=none;" vertex="1" parent="kZJQklHUBVb1IO4YHlfG-108">
          <mxGeometry x="3.9800000000000004" y="3.67" width="33.02" height="33.02" as="geometry" />
        </mxCell>
        <mxCell id="kZJQklHUBVb1IO4YHlfG-111" value="" style="group;strokeWidth=1;" vertex="1" connectable="0" parent="1">
          <mxGeometry x="589.9979310344828" y="1034.18" width="40.44" height="40" as="geometry" />
        </mxCell>
        <mxCell id="kZJQklHUBVb1IO4YHlfG-112" value="" style="rounded=1;whiteSpace=wrap;html=1;sketch=0;fontSize=24;fontColor=#A6ABBF;strokeColor=#999999;strokeWidth=2;fillColor=#E6E6E6;gradientColor=none;" vertex="1" parent="kZJQklHUBVb1IO4YHlfG-111">
          <mxGeometry width="40" height="39.99999999999998" as="geometry" />
        </mxCell>
        <mxCell id="kZJQklHUBVb1IO4YHlfG-113" value="" style="shape=image;html=1;verticalAlign=top;verticalLabelPosition=bottom;labelBackgroundColor=#ffffff;imageAspect=0;aspect=fixed;image=https://cdn2.iconfinder.com/data/icons/circle-icons-1/64/fashion-128.png;rounded=0;sketch=0;fontSize=24;fontColor=#A6ABBF;strokeColor=default;strokeWidth=2;fillColor=#DAE8FC;gradientColor=none;" vertex="1" parent="kZJQklHUBVb1IO4YHlfG-111">
          <mxGeometry x="4.89" y="4.67" width="30.67" height="30.67" as="geometry" />
        </mxCell>
        <mxCell id="kZJQklHUBVb1IO4YHlfG-123" value="" style="rounded=0;whiteSpace=wrap;html=1;strokeColor=#DAE8FC;fillColor=#DAE8FC;" vertex="1" parent="1">
          <mxGeometry x="880" y="760.3599999999999" width="320" height="600" as="geometry" />
        </mxCell>
        <mxCell id="kZJQklHUBVb1IO4YHlfG-124" value="" style="shape=card;whiteSpace=wrap;html=1;rounded=0;sketch=0;fontSize=24;fontColor=#A6ABBF;strokeColor=none;strokeWidth=2;fillColor=#CCE5FF;gradientColor=none;rotation=-180;size=340;" vertex="1" parent="1">
          <mxGeometry x="880" y="760.45" width="320" height="420.9" as="geometry" />
        </mxCell>
        <mxCell id="kZJQklHUBVb1IO4YHlfG-127" value="" style="rounded=0;whiteSpace=wrap;html=1;sketch=0;fontSize=24;fontColor=#A6ABBF;strokeColor=none;strokeWidth=0;fillColor=#E8F1FC;gradientColor=none;" vertex="1" parent="1">
          <mxGeometry x="880" y="760.45" width="320" height="49.91" as="geometry" />
        </mxCell>
        <mxCell id="kZJQklHUBVb1IO4YHlfG-128" value="&lt;font color=&quot;#6c8ebf&quot; style=&quot;font-size: 16px;&quot;&gt;匹配设置&lt;/font&gt;" style="text;html=1;align=center;verticalAlign=middle;resizable=0;points=[];autosize=1;strokeColor=none;fillColor=none;fontSize=16;fontColor=#A6ABBF;" vertex="1" parent="1">
          <mxGeometry x="988.75" y="770.4099999999999" width="90" height="30" as="geometry" />
        </mxCell>
        <mxCell id="kZJQklHUBVb1IO4YHlfG-129" value="" style="verticalLabelPosition=bottom;verticalAlign=top;html=1;shape=mxgraph.basic.frame_corner;dx=6.24;rounded=0;sketch=0;fontSize=24;fontColor=#6C8EBF;strokeColor=#6C8EBF;strokeWidth=0;fillColor=#7EA6E0;gradientColor=none;rotation=-135;direction=south;" vertex="1" parent="1">
          <mxGeometry x="892" y="775.4099999999999" width="20" height="20" as="geometry" />
        </mxCell>
        <mxCell id="kZJQklHUBVb1IO4YHlfG-139" value="陌生人性别" style="text;html=1;align=left;verticalAlign=middle;resizable=0;points=[];autosize=1;strokeColor=none;fillColor=none;fontSize=12;fontColor=#999999;" vertex="1" parent="1">
          <mxGeometry x="910" y="840.18" width="80" height="30" as="geometry" />
        </mxCell>
        <mxCell id="kZJQklHUBVb1IO4YHlfG-140" value="" style="group;strokeWidth=2;" vertex="1" connectable="0" parent="1">
          <mxGeometry x="910.5" y="871.18" width="40" height="40" as="geometry" />
        </mxCell>
        <mxCell id="kZJQklHUBVb1IO4YHlfG-141" value="" style="rounded=1;whiteSpace=wrap;html=1;sketch=0;fontSize=24;fontColor=#A6ABBF;strokeColor=#999999;strokeWidth=2;fillColor=#E6E6E6;gradientColor=none;" vertex="1" parent="kZJQklHUBVb1IO4YHlfG-140">
          <mxGeometry width="40" height="40" as="geometry" />
        </mxCell>
        <mxCell id="kZJQklHUBVb1IO4YHlfG-142" value="" style="shape=image;html=1;verticalAlign=top;verticalLabelPosition=bottom;labelBackgroundColor=#ffffff;imageAspect=0;aspect=fixed;image=https://cdn0.iconfinder.com/data/icons/maternity-and-pregnancy-2/512/189_Tie_Business_dress_fashion_interview-128.png;rounded=0;sketch=0;fontSize=24;fontColor=#A6ABBF;strokeColor=default;strokeWidth=2;fillColor=#DAE8FC;gradientColor=none;" vertex="1" parent="kZJQklHUBVb1IO4YHlfG-140">
          <mxGeometry x="3.9800000000000004" y="3.67" width="33.02" height="33.02" as="geometry" />
        </mxCell>
        <mxCell id="kZJQklHUBVb1IO4YHlfG-143" value="" style="group;strokeWidth=1;" vertex="1" connectable="0" parent="1">
          <mxGeometry x="967.4979310344828" y="871.18" width="40.44" height="40" as="geometry" />
        </mxCell>
        <mxCell id="kZJQklHUBVb1IO4YHlfG-144" value="" style="rounded=1;whiteSpace=wrap;html=1;sketch=0;fontSize=24;fontColor=#A6ABBF;strokeColor=#999999;strokeWidth=2;fillColor=#E6E6E6;gradientColor=none;" vertex="1" parent="kZJQklHUBVb1IO4YHlfG-143">
          <mxGeometry width="40" height="39.99999999999998" as="geometry" />
        </mxCell>
        <mxCell id="kZJQklHUBVb1IO4YHlfG-145" value="" style="shape=image;html=1;verticalAlign=top;verticalLabelPosition=bottom;labelBackgroundColor=#ffffff;imageAspect=0;aspect=fixed;image=https://cdn2.iconfinder.com/data/icons/circle-icons-1/64/fashion-128.png;rounded=0;sketch=0;fontSize=24;fontColor=#A6ABBF;strokeColor=default;strokeWidth=2;fillColor=#DAE8FC;gradientColor=none;" vertex="1" parent="kZJQklHUBVb1IO4YHlfG-143">
          <mxGeometry x="4.89" y="4.67" width="30.67" height="30.67" as="geometry" />
        </mxCell>
        <mxCell id="kZJQklHUBVb1IO4YHlfG-146" value="" style="group;strokeWidth=2;" vertex="1" connectable="0" parent="1">
          <mxGeometry x="1025.5" y="871.18" width="43" height="43" as="geometry" />
        </mxCell>
        <mxCell id="kZJQklHUBVb1IO4YHlfG-147" value="" style="rounded=1;whiteSpace=wrap;html=1;sketch=0;fontSize=24;fontColor=#A6ABBF;strokeColor=#6C8EBF;strokeWidth=3;fillColor=#DAE8FC;gradientColor=none;" vertex="1" parent="kZJQklHUBVb1IO4YHlfG-146">
          <mxGeometry width="40" height="40" as="geometry" />
        </mxCell>
        <mxCell id="kZJQklHUBVb1IO4YHlfG-149" value="" style="shape=image;html=1;verticalAlign=top;verticalLabelPosition=bottom;labelBackgroundColor=#ffffff;imageAspect=0;aspect=fixed;image=https://cdn3.iconfinder.com/data/icons/i-am-who-i-am/100/7-128.png;rounded=0;strokeColor=#999999;strokeWidth=2;fontSize=16;fontColor=#999999;fillColor=#E6E6E6;" vertex="1" parent="kZJQklHUBVb1IO4YHlfG-146">
          <mxGeometry x="-2" y="-2" width="46" height="46" as="geometry" />
        </mxCell>
        <mxCell id="kZJQklHUBVb1IO4YHlfG-152" value="&lt;font color=&quot;#6c8ebf&quot; style=&quot;font-size: 16px;&quot;&gt;个人资料&lt;/font&gt;" style="text;html=1;align=center;verticalAlign=middle;resizable=0;points=[];autosize=1;strokeColor=none;fillColor=none;fontSize=16;fontColor=#A6ABBF;" vertex="1" parent="1">
          <mxGeometry x="595" y="770.3199999999998" width="90" height="30" as="geometry" />
        </mxCell>
        <mxCell id="kZJQklHUBVb1IO4YHlfG-153" value="&lt;font color=&quot;#6c8ebf&quot;&gt;保存&lt;/font&gt;" style="text;html=1;align=right;verticalAlign=middle;resizable=0;points=[];autosize=1;strokeColor=none;fillColor=none;fontSize=16;fontColor=#A6ABBF;" vertex="1" parent="1">
          <mxGeometry x="1130" y="770.3199999999998" width="60" height="30" as="geometry" />
        </mxCell>
        <mxCell id="kZJQklHUBVb1IO4YHlfG-154" value="" style="rounded=0;whiteSpace=wrap;html=1;strokeColor=#DAE8FC;fillColor=#DAE8FC;" vertex="1" parent="1">
          <mxGeometry x="1280" y="760.4499999999999" width="320" height="600" as="geometry" />
        </mxCell>
        <mxCell id="kZJQklHUBVb1IO4YHlfG-155" value="" style="shape=card;whiteSpace=wrap;html=1;rounded=0;sketch=0;fontSize=24;fontColor=#A6ABBF;strokeColor=none;strokeWidth=2;fillColor=#CCE5FF;gradientColor=none;rotation=-180;size=340;" vertex="1" parent="1">
          <mxGeometry x="1280" y="760.5400000000001" width="320" height="420.9" as="geometry" />
        </mxCell>
        <mxCell id="kZJQklHUBVb1IO4YHlfG-156" value="" style="rounded=0;whiteSpace=wrap;html=1;sketch=0;fontSize=24;fontColor=#A6ABBF;strokeColor=none;strokeWidth=0;fillColor=#E8F1FC;gradientColor=none;" vertex="1" parent="1">
          <mxGeometry x="1280" y="760.5400000000001" width="320" height="49.91" as="geometry" />
        </mxCell>
        <mxCell id="kZJQklHUBVb1IO4YHlfG-157" value="&lt;font color=&quot;#6c8ebf&quot; style=&quot;font-size: 16px;&quot;&gt;关于&lt;/font&gt;" style="text;html=1;align=center;verticalAlign=middle;resizable=0;points=[];autosize=1;strokeColor=none;fillColor=none;fontSize=16;fontColor=#A6ABBF;" vertex="1" parent="1">
          <mxGeometry x="1403.75" y="770.4999999999999" width="60" height="30" as="geometry" />
        </mxCell>
        <mxCell id="kZJQklHUBVb1IO4YHlfG-158" value="" style="verticalLabelPosition=bottom;verticalAlign=top;html=1;shape=mxgraph.basic.frame_corner;dx=6.24;rounded=0;sketch=0;fontSize=24;fontColor=#6C8EBF;strokeColor=#6C8EBF;strokeWidth=0;fillColor=#7EA6E0;gradientColor=none;rotation=-135;direction=south;" vertex="1" parent="1">
          <mxGeometry x="1292" y="775.4999999999999" width="20" height="20" as="geometry" />
        </mxCell>
        <mxCell id="kZJQklHUBVb1IO4YHlfG-161" value="&lt;p style=&quot;line-height: 0.8;&quot;&gt;欢迎来到「寻觅」。&lt;br style=&quot;font-size: 14px;&quot;&gt;&lt;br style=&quot;font-size: 14px;&quot;&gt;祝你在这里找到朋友和快乐。&lt;/p&gt;" style="text;html=1;align=left;verticalAlign=top;resizable=0;points=[];autosize=1;strokeColor=none;fillColor=none;fontSize=14;fontColor=#1A1A1A;spacing=2;" vertex="1" parent="1">
          <mxGeometry x="1300" y="820.18" width="210" height="80" as="geometry" />
        </mxCell>
        <mxCell id="kZJQklHUBVb1IO4YHlfG-174" value="" style="rounded=0;whiteSpace=wrap;html=1;strokeColor=#DAE8FC;fillColor=#DAE8FC;" vertex="1" parent="1">
          <mxGeometry x="480" y="80" width="320" height="600" as="geometry" />
        </mxCell>
        <mxCell id="kZJQklHUBVb1IO4YHlfG-175" value="" style="shape=card;whiteSpace=wrap;html=1;rounded=0;sketch=0;fontSize=24;fontColor=#A6ABBF;strokeColor=none;strokeWidth=2;fillColor=#CCE5FF;gradientColor=none;rotation=-180;size=340;" vertex="1" parent="1">
          <mxGeometry x="480" y="80.09000000000015" width="320" height="420.9" as="geometry" />
        </mxCell>
        <mxCell id="kZJQklHUBVb1IO4YHlfG-177" value="" style="rounded=0;whiteSpace=wrap;html=1;sketch=0;fontSize=24;fontColor=#A6ABBF;strokeColor=none;strokeWidth=0;fillColor=#E8F1FC;gradientColor=none;" vertex="1" parent="1">
          <mxGeometry x="480" y="80.09000000000015" width="320" height="49.91" as="geometry" />
        </mxCell>
        <mxCell id="kZJQklHUBVb1IO4YHlfG-179" value="" style="verticalLabelPosition=bottom;verticalAlign=top;html=1;shape=mxgraph.basic.frame_corner;dx=6.24;rounded=0;sketch=0;fontSize=24;fontColor=#6C8EBF;strokeColor=#6C8EBF;strokeWidth=0;fillColor=#7EA6E0;gradientColor=none;rotation=-135;direction=south;" vertex="1" parent="1">
          <mxGeometry x="492" y="95.04999999999995" width="20" height="20" as="geometry" />
        </mxCell>
        <mxCell id="kZJQklHUBVb1IO4YHlfG-190" value="" style="group;strokeWidth=2;fontColor=#4D4D4D;" vertex="1" connectable="0" parent="1">
          <mxGeometry x="620" y="294.96000000000004" width="40" height="40" as="geometry" />
        </mxCell>
        <mxCell id="kZJQklHUBVb1IO4YHlfG-191" value="" style="rounded=1;whiteSpace=wrap;html=1;sketch=0;fontSize=24;fontColor=#4D4D4D;strokeColor=#6C8EBF;strokeWidth=3;fillColor=#DAE8FC;gradientColor=none;" vertex="1" parent="kZJQklHUBVb1IO4YHlfG-190">
          <mxGeometry width="40" height="40" as="geometry" />
        </mxCell>
        <mxCell id="kZJQklHUBVb1IO4YHlfG-192" value="" style="shape=image;html=1;verticalAlign=top;verticalLabelPosition=bottom;labelBackgroundColor=#ffffff;imageAspect=0;aspect=fixed;image=https://cdn0.iconfinder.com/data/icons/maternity-and-pregnancy-2/512/189_Tie_Business_dress_fashion_interview-128.png;rounded=0;sketch=0;fontSize=24;fontColor=#4D4D4D;strokeColor=default;strokeWidth=2;fillColor=#DAE8FC;gradientColor=none;" vertex="1" parent="kZJQklHUBVb1IO4YHlfG-190">
          <mxGeometry x="3.9800000000000004" y="3.67" width="33.02" height="33.02" as="geometry" />
        </mxCell>
        <mxCell id="kZJQklHUBVb1IO4YHlfG-196" value="&lt;font color=&quot;#6c8ebf&quot; style=&quot;font-size: 16px;&quot;&gt;个人资料&lt;/font&gt;" style="text;html=1;align=center;verticalAlign=middle;resizable=0;points=[];autosize=1;strokeColor=none;fillColor=none;fontSize=16;fontColor=#A6ABBF;" vertex="1" parent="1">
          <mxGeometry x="595" y="90.04999999999995" width="90" height="30" as="geometry" />
        </mxCell>
        <mxCell id="kZJQklHUBVb1IO4YHlfG-197" value="&lt;span style=&quot;font-family: Helvetica; font-size: 16px; font-style: normal; font-variant-ligatures: normal; font-variant-caps: normal; font-weight: 400; letter-spacing: normal; orphans: 2; text-indent: 0px; text-transform: none; widows: 2; word-spacing: 0px; -webkit-text-stroke-width: 0px; text-decoration-thickness: initial; text-decoration-style: initial; text-decoration-color: initial; float: none; display: inline !important;&quot;&gt;帅到被人砍&lt;/span&gt;" style="text;whiteSpace=wrap;html=1;fontSize=16;fontColor=#4D4D4D;labelBackgroundColor=none;align=center;" vertex="1" parent="1">
          <mxGeometry x="580" y="254.96000000000004" width="120" height="40" as="geometry" />
        </mxCell>
        <mxCell id="kZJQklHUBVb1IO4YHlfG-199" value="&lt;span style=&quot;font-family: Helvetica; font-size: 16px; font-style: normal; font-variant-ligatures: normal; font-variant-caps: normal; font-weight: 400; letter-spacing: normal; orphans: 2; text-indent: 0px; text-transform: none; widows: 2; word-spacing: 0px; -webkit-text-stroke-width: 0px; text-decoration-thickness: initial; text-decoration-style: initial; text-decoration-color: initial; float: none; display: inline !important;&quot;&gt;31岁&lt;/span&gt;" style="text;whiteSpace=wrap;html=1;fontSize=16;fontColor=#4D4D4D;labelBackgroundColor=none;align=center;" vertex="1" parent="1">
          <mxGeometry x="580" y="345.0500000000002" width="120" height="40" as="geometry" />
        </mxCell>
        <mxCell id="kZJQklHUBVb1IO4YHlfG-200" value="&lt;span style=&quot;font-family: Helvetica; font-size: 16px; font-style: normal; font-variant-ligatures: normal; font-variant-caps: normal; font-weight: 400; letter-spacing: normal; orphans: 2; text-indent: 0px; text-transform: none; widows: 2; word-spacing: 0px; -webkit-text-stroke-width: 0px; text-decoration-thickness: initial; text-decoration-style: initial; text-decoration-color: initial; float: none; display: inline !important;&quot;&gt;广东，广州&lt;/span&gt;" style="text;whiteSpace=wrap;html=1;fontSize=16;fontColor=#4D4D4D;labelBackgroundColor=none;align=center;" vertex="1" parent="1">
          <mxGeometry x="580" y="380.04999999999995" width="120" height="40" as="geometry" />
        </mxCell>
        <mxCell id="kZJQklHUBVb1IO4YHlfG-203" value="" style="group" vertex="1" connectable="0" parent="1">
          <mxGeometry x="605" y="170" width="70" height="70" as="geometry" />
        </mxCell>
        <mxCell id="kZJQklHUBVb1IO4YHlfG-186" value="" style="rounded=1;whiteSpace=wrap;html=1;sketch=0;fontSize=24;fontColor=#A6ABBF;strokeColor=default;strokeWidth=2;fillColor=#DAE8FC;gradientColor=none;" vertex="1" parent="kZJQklHUBVb1IO4YHlfG-203">
          <mxGeometry width="70" height="70" as="geometry" />
        </mxCell>
        <mxCell id="kZJQklHUBVb1IO4YHlfG-187" value="" style="shape=image;html=1;verticalAlign=top;verticalLabelPosition=bottom;labelBackgroundColor=#ffffff;imageAspect=0;aspect=fixed;image=https://cdn0.iconfinder.com/data/icons/maternity-and-pregnancy-2/512/189_Tie_Business_dress_fashion_interview-128.png;rounded=0;sketch=0;fontSize=24;fontColor=#A6ABBF;strokeColor=default;strokeWidth=2;fillColor=#DAE8FC;gradientColor=none;" vertex="1" parent="kZJQklHUBVb1IO4YHlfG-203">
          <mxGeometry x="10" y="10" width="50" height="50" as="geometry" />
        </mxCell>
        <mxCell id="kZJQklHUBVb1IO4YHlfG-207" value="&lt;p style=&quot;line-height: 0.8;&quot;&gt;0.0.2&lt;/p&gt;&lt;p style=&quot;line-height: 0.8;&quot;&gt;增加了xxx功能。&lt;/p&gt;" style="text;html=1;align=left;verticalAlign=top;resizable=0;points=[];autosize=1;strokeColor=none;fillColor=none;fontSize=14;fontColor=#1A1A1A;spacing=2;" vertex="1" parent="1">
          <mxGeometry x="1300" y="890.18" width="130" height="80" as="geometry" />
        </mxCell>
        <mxCell id="kZJQklHUBVb1IO4YHlfG-208" value="&lt;p style=&quot;color: rgb(26, 26, 26); font-size: 14px; text-align: left; line-height: 0.8;&quot;&gt;0.0.1&lt;/p&gt;&lt;p style=&quot;color: rgb(26, 26, 26); font-size: 14px; text-align: left; line-height: 0.8;&quot;&gt;初版发布。&lt;/p&gt;" style="text;html=1;align=center;verticalAlign=middle;resizable=0;points=[];autosize=1;strokeColor=none;fillColor=none;fontSize=16;fontColor=#4D4D4D;" vertex="1" parent="1">
          <mxGeometry x="1292" y="960.18" width="90" height="80" as="geometry" />
        </mxCell>
      </root>
    </mxGraphModel>
  </diagram>
</mxfile>
